<svg id="Layer_1" data-name="Layer 1" xmlns="http://www.w3.org/2000/svg" viewBox="0 0 40 50"><defs><style>.cls-1{fill:#fff;}</style></defs><title>NCS_SocialArtboard 1</title><path class="cls-1" d="M19.62,1A18.21,18.21,0,0,0,1.43,19.17C1.43,29,18.2,47.89,18.92,48.69a.93.93,0,0,0,1.32.07l.07-.07C21,47.88,37.8,29,37.8,19.17A18.21,18.21,0,0,0,19.62,1Zm0,45.67C16.42,42.89,3.3,27.17,3.3,19.16a16.32,16.32,0,0,1,32.64,0C35.94,27.17,22.82,42.91,19.62,46.64Z"/><path class="cls-1" d="M20,10.1A9.86,9.86,0,1,0,29.82,20,9.85,9.85,0,0,0,20,10.1ZM20,28a8,8,0,1,1,8-8h0A8,8,0,0,1,20,28Z"/></svg>