<svg id="Layer_1" data-name="Layer 1" xmlns="http://www.w3.org/2000/svg" viewBox="0 0 40 40"><defs><style>.cls-1{fill:#469f89;}.cls-2{fill:#f8f7dc;}</style></defs><title>NCS_SocialMail_1</title><path class="cls-1" d="M20.06.62a19.5,19.5,0,1,0,19.5,19.5A19.5,19.5,0,0,0,20.06.62Z"/><path class="cls-2" d="M10.36,14.87l8.39,4.5a2.25,2.25,0,0,0,1,.23,2.18,2.18,0,0,0,1-.23l8.39-4.5c.55-.3,1.07-1.22.06-1.22H10.3C9.3,13.65,9.82,14.57,10.36,14.87ZM29.41,17.1l-8.63,4.51a1.89,1.89,0,0,1-1,.23,1.92,1.92,0,0,1-1-.23L10.13,17.1c-.44-.22-.43,0-.43.25v8.21a1.29,1.29,0,0,0,1.11,1.07H28.73a1.31,1.31,0,0,0,1.11-1.07V17.35C29.84,17.14,29.84,16.88,29.41,17.1Z"/><path class="cls-2" d="M10.36,14.87l8.39,4.5a2.25,2.25,0,0,0,1,.23,2.18,2.18,0,0,0,1-.23l8.39-4.5c.55-.3,1.07-1.22.06-1.22H10.3C9.3,13.65,9.82,14.57,10.36,14.87ZM29.41,17.1l-8.63,4.51a1.89,1.89,0,0,1-1,.23,1.92,1.92,0,0,1-1-.23L10.13,17.1c-.44-.22-.43,0-.43.25v8.21a1.29,1.29,0,0,0,1.11,1.07H28.73a1.31,1.31,0,0,0,1.11-1.07V17.35C29.84,17.14,29.84,16.88,29.41,17.1Z"/></svg>