<svg id="Layer_1" data-name="Layer 1" xmlns="http://www.w3.org/2000/svg" viewBox="0 0 40 40"><defs><style>.cls-1{fill:#f8f7dc;}.cls-2{fill:#276051;}</style></defs><title>NCS_SocialFace_2</title><path class="cls-1" d="M21.49,14.5a.83.83,0,0,1,.86-.94h2.17V10.22h-3a3.8,3.8,0,0,0-4.08,4.09v2.22H15.51V20h1.93v9.74h4V20h2.73l.36-3.45H21.49Z"/><path class="cls-2" d="M20,.46A19.5,19.5,0,1,0,39.54,20,19.5,19.5,0,0,0,20,.46ZM24.22,20H21.49v9.74h-4V20H15.51V16.52h1.93V14.3a3.8,3.8,0,0,1,4.08-4.09h3v3.34H22.35a.83.83,0,0,0-.86.94v2h3.09Z"/></svg>