<svg id="Layer_1" data-name="Layer 1" xmlns="http://www.w3.org/2000/svg" viewBox="0 0 40 40"><defs><style>.cls-1{fill:#f8f7dc;}.cls-2{fill:#469f89;}</style></defs><title>NCS_SocialTube_1</title><polygon class="cls-1" points="16.71 17.87 16.71 14.82 18.16 10.5 16.89 10.5 16.12 13.45 16.04 13.45 15.23 10.5 13.97 10.5 15.46 14.95 15.46 17.87 16.71 17.87"/><path class="cls-1" d="M21.84,23.32a.54.54,0,0,0-.21.05.55.55,0,0,0-.2.15V26.6a1,1,0,0,0,.23.17.52.52,0,0,0,.24.05.33.33,0,0,0,.27-.1.58.58,0,0,0,.08-.34V23.83a.59.59,0,0,0-.1-.38A.37.37,0,0,0,21.84,23.32Z"/><path class="cls-1" d="M26.21,19.59H13.84a3.56,3.56,0,0,0-3.56,3.56V26a3.56,3.56,0,0,0,3.56,3.57H26.21A3.57,3.57,0,0,0,29.78,26V23.15A3.56,3.56,0,0,0,26.21,19.59Zm-9.77,2.23H15.29v5.71H14.18V21.82H13v-1h3.41Zm3.25,5.71h-1V27a2.18,2.18,0,0,1-.57.46,1.15,1.15,0,0,1-.57.16.63.63,0,0,1-.52-.23,1.07,1.07,0,0,1-.17-.66V22.6h1v3.78a.45.45,0,0,0,.06.26.25.25,0,0,0,.2.08.63.63,0,0,0,.28-.11,1.48,1.48,0,0,0,.3-.26V22.6h1Zm3.58-1a1.21,1.21,0,0,1-.24.8.79.79,0,0,1-.67.28,1.19,1.19,0,0,1-.51-.11,1.27,1.27,0,0,1-.42-.33v.37h-1V20.84h1V23a1.51,1.51,0,0,1,.42-.35,1.07,1.07,0,0,1,.46-.11.84.84,0,0,1,.71.31,1.45,1.45,0,0,1,.25.93Zm3.42-1.34H24.8v.93a1.07,1.07,0,0,0,.1.55.35.35,0,0,0,.33.15.44.44,0,0,0,.35-.13,1.17,1.17,0,0,0,.09-.57v-.22h1v.25a1.59,1.59,0,0,1-.37,1.15,1.51,1.51,0,0,1-1.11.38,1.36,1.36,0,0,1-1-.41,1.54,1.54,0,0,1-.39-1.12V23.93a1.39,1.39,0,0,1,.42-1.05,1.49,1.49,0,0,1,1.08-.4,1.36,1.36,0,0,1,1,.37,1.46,1.46,0,0,1,.37,1.08Z"/><path class="cls-1" d="M21.05,17.61a1.43,1.43,0,0,0,.43-1.09V13.71a1.32,1.32,0,0,0-.44-1,1.65,1.65,0,0,0-1.13-.39,1.82,1.82,0,0,0-1.21.37,1.25,1.25,0,0,0-.45,1V16.5a1.45,1.45,0,0,0,.44,1.1,1.65,1.65,0,0,0,1.17.41A1.68,1.68,0,0,0,21.05,17.61Zm-1.53-.67a.45.45,0,0,1-.12-.34v-3a.37.37,0,0,1,.12-.29.52.52,0,0,1,.33-.11.57.57,0,0,1,.36.11.36.36,0,0,1,.14.29v3a.44.44,0,0,1-.14.34.48.48,0,0,1-.36.13A.4.4,0,0,1,19.52,16.94Z"/><path class="cls-1" d="M25.24,23.34a.38.38,0,0,0-.34.14.69.69,0,0,0-.1.44v.5h.87v-.5a.69.69,0,0,0-.1-.44A.37.37,0,0,0,25.24,23.34Z"/><path class="cls-1" d="M22.38,12.44V17a1.16,1.16,0,0,0,.19.73.71.71,0,0,0,.58.24,1.47,1.47,0,0,0,.65-.17,2.65,2.65,0,0,0,.64-.51v.6h1.11V12.44H24.44v4.12a1.88,1.88,0,0,1-.34.3.71.71,0,0,1-.32.11.25.25,0,0,1-.22-.09.43.43,0,0,1-.07-.28V12.44Z"/><path class="cls-2" d="M20.35,16.6v-3a.36.36,0,0,0-.14-.29.57.57,0,0,0-.36-.11.52.52,0,0,0-.33.11.37.37,0,0,0-.12.29v3a.45.45,0,0,0,.12.34.4.4,0,0,0,.33.13.48.48,0,0,0,.36-.13A.44.44,0,0,0,20.35,16.6Z"/><path class="cls-2" d="M22.31,22.54a1.07,1.07,0,0,0-.46.11,1.51,1.51,0,0,0-.42.35V20.84h-1v6.69h1v-.37a1.27,1.27,0,0,0,.42.33,1.19,1.19,0,0,0,.51.11.79.79,0,0,0,.67-.28,1.21,1.21,0,0,0,.24-.8V23.78a1.45,1.45,0,0,0-.25-.93A.84.84,0,0,0,22.31,22.54Zm-.06,3.84a.58.58,0,0,1-.08.34.33.33,0,0,1-.27.1.52.52,0,0,1-.24-.05,1,1,0,0,1-.23-.17V23.52a.55.55,0,0,1,.2-.15.54.54,0,0,1,.21-.05.37.37,0,0,1,.31.13.59.59,0,0,1,.1.38Z"/><polygon class="cls-2" points="13.03 21.82 14.18 21.82 14.18 27.53 15.29 27.53 15.29 21.82 16.44 21.82 16.44 20.84 13.03 20.84 13.03 21.82"/><path class="cls-2" d="M18.7,26.35a1.48,1.48,0,0,1-.3.26.63.63,0,0,1-.28.11.25.25,0,0,1-.2-.08.45.45,0,0,1-.06-.26V22.6h-1v4.12a1.07,1.07,0,0,0,.17.66.63.63,0,0,0,.52.23,1.15,1.15,0,0,0,.57-.16A2.18,2.18,0,0,0,18.7,27v.54h1V22.6h-1Z"/><path class="cls-2" d="M20,.54A19.5,19.5,0,1,0,39.53,20,19.5,19.5,0,0,0,20,.54ZM29.78,26a3.57,3.57,0,0,1-3.57,3.57H13.84A3.56,3.56,0,0,1,10.28,26V23.15a3.56,3.56,0,0,1,3.56-3.56H26.21a3.56,3.56,0,0,1,3.57,3.56ZM14,10.5h1.26L16,13.45h.08l.77-2.95h1.27l-1.45,4.32v3.05H15.46V15Zm4.28,6V13.68a1.25,1.25,0,0,1,.45-1,1.82,1.82,0,0,1,1.21-.37,1.65,1.65,0,0,1,1.13.39,1.32,1.32,0,0,1,.44,1v2.81a1.43,1.43,0,0,1-.43,1.09,1.68,1.68,0,0,1-1.19.4,1.65,1.65,0,0,1-1.17-.41A1.45,1.45,0,0,1,18.25,16.5Zm5.31.38a.25.25,0,0,0,.22.09.71.71,0,0,0,.32-.11,1.88,1.88,0,0,0,.34-.3V12.44h1.11v5.43H24.44v-.6a2.65,2.65,0,0,1-.64.51,1.47,1.47,0,0,1-.65.17.71.71,0,0,1-.58-.24,1.16,1.16,0,0,1-.19-.73V12.44h1.11V16.6A.43.43,0,0,0,23.56,16.88Z"/><path class="cls-2" d="M25.28,22.48a1.49,1.49,0,0,0-1.08.4,1.39,1.39,0,0,0-.42,1.05v2.21a1.54,1.54,0,0,0,.39,1.12,1.36,1.36,0,0,0,1,.41,1.51,1.51,0,0,0,1.11-.38,1.59,1.59,0,0,0,.37-1.15v-.25h-1v.22a1.17,1.17,0,0,1-.09.57.44.44,0,0,1-.35.13.35.35,0,0,1-.33-.15,1.07,1.07,0,0,1-.1-.55v-.93h1.89V23.93a1.46,1.46,0,0,0-.37-1.08A1.36,1.36,0,0,0,25.28,22.48Zm.39,1.94H24.8v-.5a.69.69,0,0,1,.1-.44.38.38,0,0,1,.34-.14.37.37,0,0,1,.33.14.69.69,0,0,1,.1.44Z"/></svg>