<svg id="Layer_1" data-name="Layer 1" xmlns="http://www.w3.org/2000/svg" viewBox="0 0 40 40"><defs><style>.cls-1{fill:#276051;}.cls-2{fill:#f8f7dc;}</style></defs><title>NCS_SocialInsta_2</title><path class="cls-1" d="M20,.52A19.5,19.5,0,1,0,39.5,20,19.5,19.5,0,0,0,20,.52Z"/><g id="oZGLN4"><path class="cls-2" d="M20.1,9.85h6a4,4,0,0,1,3.17,1.39,3.91,3.91,0,0,1,.94,2.66c0,4,0,8.11,0,12.16A3.89,3.89,0,0,1,27,30a4.8,4.8,0,0,1-.93.08h-12a3.91,3.91,0,0,1-4-3.21A4.4,4.4,0,0,1,10,26q0-6,0-12a3.91,3.91,0,0,1,3.21-4,5.17,5.17,0,0,1,1-.07Zm-8.13,8c0,.11,0,.18,0,.25V26a2.54,2.54,0,0,0,.07.61,1.9,1.9,0,0,0,2,1.47H26.14a2.53,2.53,0,0,0,.61-.06,1.91,1.91,0,0,0,1.49-2c0-2.63,0-5.25,0-7.88a1.79,1.79,0,0,0,0-.24h-3a5.53,5.53,0,0,1-1.66,6.35,5.42,5.42,0,0,1-6.17.53c-2.63-1.62-3.33-4-2.49-6.9H12Zm8.13,5.64A3.56,3.56,0,1,0,16.54,20,3.58,3.58,0,0,0,20.1,23.53Zm7.76-11.32H24.48V15.6h3.38Z"/></g></svg>