<?xml version="1.0" encoding="utf-8"?>
<!-- Generator: Adobe Illustrator 22.1.0, SVG Export Plug-In . SVG Version: 6.00 Build 0)  -->
<!DOCTYPE svg PUBLIC "-//W3C//DTD SVG 1.1//EN" "http://www.w3.org/Graphics/SVG/1.1/DTD/svg11.dtd">
<svg version="1.1" id="Layer_1" xmlns="http://www.w3.org/2000/svg" xmlns:xlink="http://www.w3.org/1999/xlink" x="0px" y="0px"
	 viewBox="0 0 197.6 190.2" style="enable-background:new 0 0 197.6 190.2;" xml:space="preserve">
<style type="text/css">
	.st0{fill:#459F88;}
	.st1{fill:#F7F5DB;}
	.st2{fill:#F7F5DB;stroke:#F7F5DC;stroke-width:0.35;stroke-miterlimit:10;}
</style>
<g>
	<g>
		<polygon class="st0" points="46.3,56.5 35.4,67.3 39.9,53.3 28.7,48.1 42.4,45.3 46.3,31.3 50.2,43.5 63.9,40 52.6,50.4 
			57.2,62.3 		"/>
		<polygon class="st0" points="97.8,44.2 86.9,55 91.4,41 80.1,35.8 93.8,33 97.8,19 101.7,31.2 115.4,27.7 104.1,38.1 108.6,50 		
			"/>
		<polygon class="st0" points="149.2,31.9 138.3,42.7 142.9,28.7 131.6,23.5 145.3,20.7 149.2,6.7 153.1,18.9 166.8,15.4 
			155.6,25.8 160.1,37.7 		"/>
	</g>
	<g>
		<polygon class="st0" points="187.4,139.8 12.1,180.7 12.1,117.2 187.4,76.4 		"/>
		<g>
			<g>
				<path class="st1" d="M26.5,130.7c0,1.1,0.2,2.1,0.5,2.8c0.3,0.8,0.8,1.4,1.3,1.9c0.5,0.5,1.2,1,1.9,1.4c0.7,0.4,1.5,0.7,2.3,1
					c1.7,0.7,3.5,1.4,5.1,2.1c1.7,0.7,3.2,1.6,4.5,2.7c1.3,1.1,2.4,2.4,3.2,3.9c0.8,1.6,1.2,3.6,1.2,6c0,1.8-0.3,3.6-1,5.5
					c-0.7,1.9-1.6,3.6-2.7,5.2c-1.2,1.6-2.5,3-4.1,4.1c-1.6,1.1-3.3,1.9-5.1,2.4c-1.7,0.4-3.2,0.4-4.8,0.2c-1.5-0.3-2.9-0.9-4.1-1.7
					c-1.2-0.9-2.1-2-2.8-3.3s-1.1-2.9-1.1-4.7l5.6-1.3c0,0.9,0.2,1.8,0.6,2.5c0.4,0.7,0.9,1.3,1.6,1.8c0.7,0.5,1.5,0.7,2.3,0.9
					c0.8,0.1,1.7,0.1,2.6-0.1c1-0.2,2-0.7,2.9-1.4c0.9-0.7,1.6-1.5,2.3-2.5c0.7-1,1.2-2,1.6-3c0.4-1.1,0.6-2.1,0.6-3.1
					c0-2.2-0.5-3.9-1.5-5.1c-1-1.2-2.2-2.1-3.7-2.9c-1.5-0.7-3.1-1.4-4.8-1.9c-1.7-0.6-3.3-1.3-4.8-2.1c-1.5-0.9-2.7-2.1-3.7-3.6
					c-1-1.5-1.5-3.6-1.5-6.3c0-1.6,0.3-3.1,0.9-4.5c0.6-1.5,1.4-2.8,2.4-4c1-1.2,2.2-2.2,3.5-3.1c1.3-0.8,2.7-1.4,4.2-1.8
					c1.5-0.3,2.8-0.4,4.1-0.2c1.3,0.2,2.4,0.7,3.4,1.5c1,0.8,1.7,1.7,2.3,2.9c0.5,1.2,0.8,2.6,0.8,4.1l-5.6,1.3
					c0-1.4-0.4-2.5-1.3-3.3c-0.9-0.8-2.1-1-3.6-0.6c-1.5,0.4-2.8,1.1-3.8,2.4C27.1,128,26.5,129.3,26.5,130.7z"/>
				<path class="st1" d="M93.9,104.4l-16.8,55.2l-6.6-18.6L64,162.7l-16.8-47.4l5.6-1.3L64,145.5l3.8-12.4l-7.4-20.9l5.7-1.3
					l11.1,31.6l11.1-36.8L93.9,104.4z"/>
				<path class="st1" d="M104,102v51.1l-5.6,1.3v-51.1L104,102z"/>
				<path class="st1" d="M138.7,93.9V145l-5.6,1.3l-15.4-33.8v37.4l-5.6,1.3v-51.1l5.6-1.3l15.4,33.8V95.3L138.7,93.9z"/>
				<path class="st1" d="M175.6,136.4l-5.6,1.3c-3.4,0.8-6.7,0.9-9.7,0.3c-3-0.6-5.7-1.8-7.9-3.6c-2.3-1.8-4-4.1-5.3-6.9
					s-1.9-6-1.9-9.6s0.6-7.1,1.9-10.5s3.1-6.6,5.3-9.5c2.3-2.9,4.9-5.3,7.9-7.4c3-2,6.3-3.5,9.7-4.3c0.9-0.2,1.8-0.4,2.8-0.4v5.8
					c-0.9,0.1-1.9,0.2-2.8,0.4c-2.7,0.6-5.2,1.7-7.5,3.3c-2.3,1.6-4.4,3.5-6.1,5.7c-1.7,2.2-3.1,4.7-4.1,7.3c-1,2.7-1.5,5.4-1.5,8.2
					c0,2.7,0.5,5.2,1.5,7.4c1,2.2,2.4,4,4.1,5.4s3.8,2.4,6.1,2.9c2.3,0.5,4.9,0.4,7.5-0.2v-12.8l-5.6,1.3v-5.6l11.2-2.6V136.4z"/>
			</g>
		</g>
	</g>
	<g>
		<polygon class="st0" points="187.4,71.2 12.1,112.1 12.1,82 187.4,41.2 		"/>
		<g>
			<g>
				<path class="st2" d="M33,84.3V101l-1.8,0.4l-5-11.1v12.2l-1.8,0.4V86.3l1.8-0.4l5,11.1V84.7L33,84.3z"/>
				<path class="st2" d="M44.8,81.5v1.8l-5.2,1.2v5.9l4.3-1v1.8l-4.3,1v5.4l5.2-1.2v1.8l-7,1.6V83.2L44.8,81.5z"/>
				<path class="st2" d="M63.8,77.1l-5.5,18.1l-2.2-6.1L54,96.2l-5.5-15.5l1.8-0.4L54,90.6l1.2-4.1l-2.4-6.8l1.9-0.4l3.6,10.3
					l3.6-12L63.8,77.1z"/>
				<path class="st2" d="M83.1,72.5c0.3-0.1,0.6-0.1,0.9-0.1v1.9c-0.3,0-0.6,0.1-0.9,0.1c-0.9,0.2-1.7,0.6-2.5,1.1
					c-0.8,0.5-1.4,1.1-2,1.9c-0.6,0.7-1,1.5-1.4,2.4c-0.3,0.9-0.5,1.8-0.5,2.7c0,0.9,0.2,1.7,0.5,2.4c0.3,0.7,0.8,1.3,1.4,1.8
					c0.6,0.5,1.2,0.8,2,0.9c0.8,0.2,1.6,0.1,2.5-0.1c0.3-0.1,0.6-0.2,0.9-0.3v1.9c-0.2,0.1-0.3,0.1-0.5,0.1c-0.1,0-0.3,0.1-0.5,0.1
					c-1.1,0.3-2.2,0.3-3.2,0.1c-1-0.2-1.9-0.6-2.6-1.2C76.5,87.7,76,87,75.5,86c-0.4-0.9-0.6-2-0.6-3.1s0.2-2.3,0.6-3.4
					s1-2.2,1.8-3.1c0.7-0.9,1.6-1.7,2.6-2.4C80.9,73.3,81.9,72.8,83.1,72.5z"/>
				<path class="st2" d="M94.7,69.8c1.1-0.3,2.2-0.3,3.1-0.1c1,0.2,1.9,0.6,2.6,1.2c0.7,0.6,1.3,1.4,1.8,2.3c0.4,0.9,0.6,2,0.6,3.1
					c0,1.2-0.2,2.3-0.6,3.4c-0.4,1.1-1,2.2-1.7,3.1c-0.7,0.9-1.6,1.7-2.6,2.4s-2,1.1-3.2,1.4c-1.1,0.3-2.2,0.3-3.2,0.1
					c-1-0.2-1.9-0.6-2.6-1.2c-0.7-0.6-1.3-1.3-1.7-2.3c-0.4-0.9-0.6-2-0.6-3.1s0.2-2.3,0.6-3.4c0.4-1.1,1-2.2,1.7-3.1
					c0.7-0.9,1.6-1.7,2.6-2.4S93.5,70.1,94.7,69.8z M94.7,71.7c-0.9,0.2-1.7,0.6-2.5,1.1s-1.4,1.1-2,1.9c-0.6,0.7-1,1.5-1.4,2.4
					c-0.3,0.9-0.5,1.8-0.5,2.7c0,0.9,0.2,1.7,0.5,2.4c0.3,0.7,0.8,1.3,1.4,1.8c0.6,0.5,1.2,0.8,2,0.9c0.8,0.2,1.6,0.1,2.5-0.1
					c0.9-0.2,1.7-0.6,2.4-1.1c0.8-0.5,1.4-1.1,2-1.9c0.6-0.7,1-1.5,1.4-2.4c0.3-0.9,0.5-1.8,0.5-2.6c0-0.9-0.2-1.7-0.5-2.4
					c-0.3-0.7-0.8-1.3-1.4-1.8c-0.6-0.5-1.2-0.8-2-0.9C96.3,71.5,95.5,71.5,94.7,71.7z"/>
				<path class="st2" d="M108.8,66.6v14.9l5.2-1.2v1.8l-7,1.6V67.1L108.8,66.6z"/>
				<path class="st2" d="M125.8,74.6c0,0.6-0.1,1.3-0.3,1.9c-0.2,0.6-0.5,1.2-0.8,1.8c-0.4,0.5-0.8,1-1.3,1.4
					c-0.5,0.4-1.1,0.7-1.8,0.8c-0.6,0.2-1.2,0.2-1.8,0c-0.5-0.2-1-0.4-1.3-0.8c-0.4-0.4-0.6-0.8-0.8-1.4c-0.2-0.5-0.3-1.1-0.3-1.8
					V64.6l1.8-0.4v12c0,0.9,0.3,1.5,0.7,1.9s1,0.5,1.6,0.4c0.6-0.2,1.2-0.5,1.6-1.1s0.7-1.4,0.7-2.3v-12l1.8-0.4V74.6z"/>
				<path class="st2" d="M132.3,61.1l3.3,10.1l3.3-11.6l1.8-0.4v16.7l-1.8,0.4V65.6l-3.3,11.6l-3.3-10.1v10.8l-1.8,0.4V61.6
					L132.3,61.1z"/>
				<path class="st2" d="M145.6,58.1l3.7-0.9c0.4-0.1,0.8-0.1,1.2,0c0.4,0.1,0.7,0.2,1,0.4c0.3,0.2,0.5,0.5,0.6,0.8
					c0.2,0.3,0.2,0.7,0.2,1.1c0,0.8-0.2,1.5-0.7,2.2c0.9,0.3,1.6,0.9,2.2,1.7c0.5,0.8,0.8,1.8,0.8,3.1c0,0.9-0.2,1.8-0.5,2.6
					c-0.3,0.8-0.7,1.6-1.3,2.3c-0.5,0.7-1.2,1.3-1.9,1.7c-0.7,0.5-1.6,0.8-2.4,1l-2.8,0.7V58.1z M149.3,61.4
					c0.3-0.1,0.6-0.3,0.8-0.5c0.2-0.3,0.3-0.6,0.3-0.9c0-0.3-0.1-0.6-0.3-0.8c-0.2-0.2-0.5-0.2-0.8-0.2l-1.9,0.4v2.4L149.3,61.4z
					 M147.4,72.5l1-0.2c0.5-0.1,1-0.3,1.5-0.6c0.5-0.3,1-0.7,1.4-1.1c0.4-0.5,0.7-1,1-1.6c0.3-0.6,0.4-1.3,0.4-2.1
					c0-0.8-0.1-1.4-0.4-1.9c-0.3-0.5-0.6-0.9-1-1.2c-0.4-0.3-0.9-0.4-1.4-0.5c-0.5-0.1-1,0-1.5,0.1l-1,0.2V72.5z"/>
				<path class="st2" d="M160.5,54.6v16.7l-1.8,0.4V55L160.5,54.6z"/>
				<path class="st2" d="M173.3,68.3l-0.8-2.3l-5.7,1.3L166,70l-1.8,0.4l5.5-18.1l5.5,15.5L173.3,68.3z M167.4,65.4l4.5-1.1
					l-2.2-6.4L167.4,65.4z"/>
			</g>
		</g>
	</g>
</g>
</svg>
