<svg id="Layer_1" data-name="Layer 1" xmlns="http://www.w3.org/2000/svg" viewBox="0 0 40 40"><defs><style>.cls-1{fill:#f8f7dc;}.cls-2{fill:#276051;}</style></defs><title>NCS_SocialTwit_2</title><path class="cls-1" d="M29.27,12.49a8,8,0,0,1-2.54,1,4,4,0,0,0-6.92,2.74,4.53,4.53,0,0,0,.1.91,11.36,11.36,0,0,1-8.24-4.18,3.93,3.93,0,0,0-.54,2,4,4,0,0,0,1.78,3.33,4,4,0,0,1-1.82-.5v.05a4,4,0,0,0,3.21,3.93,4,4,0,0,1-1.05.14,3.67,3.67,0,0,1-.75-.08,4,4,0,0,0,3.73,2.78,8,8,0,0,1-5,1.71c-.33,0-.65,0-1-.05a11.38,11.38,0,0,0,17.52-9.59c0-.17,0-.34,0-.51a8,8,0,0,0,2-2.07,8.06,8.06,0,0,1-2.3.62A4,4,0,0,0,29.27,12.49Z"/><path class="cls-2" d="M20.06.62a19.5,19.5,0,1,0,19.5,19.5A19.5,19.5,0,0,0,20.06.62Zm7.75,15.53c0,.17,0,.34,0,.51a11.38,11.38,0,0,1-17.52,9.59c.31,0,.63.05,1,.05a8,8,0,0,0,5-1.71,4,4,0,0,1-3.73-2.78,3.67,3.67,0,0,0,.75.08,4,4,0,0,0,1.05-.14,4,4,0,0,1-3.21-3.93v-.05a4,4,0,0,0,1.82.5,4,4,0,0,1-1.78-3.33,3.93,3.93,0,0,1,.54-2,11.36,11.36,0,0,0,8.24,4.18,4.53,4.53,0,0,1-.1-.91,4,4,0,0,1,6.92-2.74,8,8,0,0,0,2.54-1,4,4,0,0,1-1.76,2.21,8.06,8.06,0,0,0,2.3-.62A8,8,0,0,1,27.81,16.15Z"/></svg>